<svg xmlns="http://www.w3.org/2000/svg" width="400" height="100" viewBox="0 0 400 100">
  <rect width="400" height="100" fill="#0d1117"/>
  <!-- Music bars -->
  <rect x="10" y="40" width="15" height="60" fill="#58a6ff" rx="2"/>
  <rect x="30" y="20" width="15" height="80" fill="#58a6ff" rx="2"/>
  <rect x="50" y="60" width="15" height="40" fill="#58a6ff" rx="2"/>
  <rect x="70" y="30" width="15" height="70" fill="#58a6ff" rx="2"/>
  <rect x="90" y="50" width="15" height="50" fill="#58a6ff" rx="2"/>
  <rect x="110" y="10" width="15" height="90" fill="#58a6ff" rx="2"/>
  <rect x="130" y="45" width="15" height="55" fill="#58a6ff" rx="2"/>
  <rect x="150" y="25" width="15" height="75" fill="#58a6ff" rx="2"/>
  <rect x="170" y="65" width="15" height="35" fill="#58a6ff" rx="2"/>
  <rect x="190" y="15" width="15" height="85" fill="#58a6ff" rx="2"/>
  <rect x="210" y="55" width="15" height="45" fill="#58a6ff" rx="2"/>
  <rect x="230" y="35" width="15" height="65" fill="#58a6ff" rx="2"/>
  <rect x="250" y="75" width="15" height="25" fill="#58a6ff" rx="2"/>
  <rect x="270" y="5" width="15" height="95" fill="#58a6ff" rx="2"/>
  <rect x="290" y="40" width="15" height="60" fill="#58a6ff" rx="2"/>
  <rect x="310" y="20" width="15" height="80" fill="#58a6ff" rx="2"/>
  <rect x="330" y="60" width="15" height="40" fill="#58a6ff" rx="2"/>
  <rect x="350" y="30" width="15" height="70" fill="#58a6ff" rx="2"/>
  <rect x="370" y="50" width="15" height="50" fill="#58a6ff" rx="2"/>
</svg>
